<?xml version="1.0" encoding="iso-8859-1"?>
<!-- Generator: Adobe Illustrator 26.0.3, SVG Export Plug-In . SVG Version: 6.00 Build 0)  -->
<svg version="1.1" id="Layer_1" xmlns="http://www.w3.org/2000/svg" xmlns:xlink="http://www.w3.org/1999/xlink" x="0px" y="0px"
	 viewBox="0 0 1580.443 300" enable-background="new 0 0 1580.443 300" xml:space="preserve">
<g>
	<g>
		<path fill="#FFFFFF" d="M431.989,111.408c-14.023-8.601-30.577-12.903-49.666-12.903c-18.736,0-35.116,4.215-49.136,12.638
			c-14.024,8.426-24.923,20.211-32.699,35.349c-7.777,15.143-11.667,32.672-11.667,52.584c0,19.796,3.801,37.265,11.401,52.405
			c7.6,15.143,18.409,27.015,32.433,35.616C346.678,295.696,363.234,300,382.323,300c18.97,0,35.465-4.273,49.49-12.815
			c14.021-8.542,24.89-20.385,32.609-35.526c7.716-15.14,11.577-32.669,11.577-52.583c0-19.678-3.83-37.057-11.488-52.141
			C456.851,131.853,446.011,120.01,431.989,111.408z M423.241,246.709c-9.015,12.315-22.655,18.47-40.918,18.47
			c-17.795,0-31.285-6.009-40.476-18.027c-9.191-12.02-13.786-28.043-13.786-48.076c0-12.961,1.943-24.362,5.833-34.202
			c3.888-9.837,9.837-17.556,17.851-23.154c8.011-5.594,18.205-8.395,30.578-8.395c18.027,0,31.607,5.982,40.74,17.939
			c9.13,11.962,13.698,27.9,13.698,47.812C436.761,218.518,432.255,234.398,423.241,246.709z"/>
	</g>
	<g>
		<path fill="#FFFFFF" d="M636.828,116.877c-2.061-1.831-4.188-3.591-6.452-5.205c-12.314-8.776-27.484-13.167-45.512-13.167
			c-17.912,0-33.377,4.39-46.397,13.167c-13.022,8.779-23.066,20.741-30.135,35.881c-7.07,15.141-10.606,32.317-10.606,51.522
			c0,19.089,3.505,36.263,10.517,51.522c7.009,15.261,16.968,27.308,29.871,36.145C551.016,295.581,566.362,300,584.157,300
			c18.263,0,33.582-4.45,45.955-13.346c3.974-2.857,7.604-6.076,10.958-9.584v17.627h32.875V37.5h-37.118V116.877z M635.767,234.071
			c-3.534,10.137-9.133,18.09-16.791,23.861c-7.661,5.774-17.559,8.662-29.694,8.662c-11.784,0-21.536-3.005-29.252-9.015
			c-7.719-6.009-13.494-14.109-17.322-24.303c-3.83-10.19-5.743-21.591-5.743-34.201c0-12.488,1.913-23.802,5.743-33.937
			c3.828-10.132,9.691-18.205,17.587-24.215c7.894-6.01,17.968-9.014,30.225-9.014c11.546,0,21.061,2.828,28.544,8.484
			c7.482,5.655,13.019,13.552,16.615,23.684c3.593,10.135,5.391,21.8,5.391,34.997C641.07,212.274,639.303,223.939,635.767,234.071z
			"/>
	</g>
	<g>
		<rect x="717.957" y="103.807" fill="#FFFFFF" width="36.94" height="190.89"/>
	</g>
	<g>
		<rect x="717.957" y="37.5" fill="#FFFFFF" width="36.94" height="35.023"/>
	</g>
	<g>
		<path fill="#FFFFFF" d="M924.293,116.877c-2.061-1.831-4.188-3.591-6.451-5.205c-12.314-8.776-27.484-13.167-45.512-13.167
			c-17.912,0-33.377,4.39-46.397,13.167c-13.022,8.779-23.066,20.741-30.135,35.881c-7.07,15.141-10.606,32.317-10.606,51.522
			c0,19.089,3.505,36.263,10.517,51.522c7.009,15.261,16.968,27.308,29.871,36.145C838.482,295.581,853.828,300,871.622,300
			c18.263,0,33.582-4.45,45.955-13.346c3.974-2.857,7.604-6.076,10.958-9.584v17.627h32.875V37.5h-37.118V116.877z M923.233,234.071
			c-3.534,10.137-9.133,18.09-16.791,23.861c-7.661,5.774-17.559,8.662-29.694,8.662c-11.784,0-21.536-3.005-29.252-9.015
			c-7.719-6.009-13.494-14.109-17.322-24.303c-3.83-10.19-5.743-21.591-5.743-34.201c0-12.488,1.913-23.802,5.743-33.937
			c3.828-10.132,9.691-18.205,17.587-24.215c7.894-6.01,17.968-9.014,30.225-9.014c11.546,0,21.061,2.828,28.544,8.484
			c7.482,5.655,13.019,13.552,16.615,23.684c3.593,10.135,5.391,21.8,5.391,34.997C928.536,212.274,926.769,223.939,923.233,234.071
			z"/>
	</g>
	<g>
		<path fill="#FFFFFF" d="M1149.409,134.914c-5.892-12.606-15.173-21.829-27.837-27.661c-12.669-5.833-27.546-8.748-44.63-8.748
			c-22.036,0-39.68,4.832-52.936,14.493c-13.256,9.664-22.243,22.685-26.954,39.062l34.466,10.605
			c3.297-10.721,9.13-18.41,17.498-23.066c8.365-4.653,17.556-6.981,27.573-6.981c15.908,0,27.13,3.622,33.671,10.87
			c5.707,6.324,8.83,15.59,9.377,27.79c-7.237,1.018-14.446,2.036-21.751,3.052c-11.841,1.651-23.126,3.42-33.847,5.303
			c-10.724,1.885-20.327,4.065-28.809,6.539c-9.783,3.181-18.029,7.334-24.746,12.46c-6.717,5.126-11.784,11.343-15.201,18.648
			c-3.418,7.308-5.126,15.792-5.126,25.453c0,10.369,2.444,19.884,7.336,28.544c4.889,8.662,12.107,15.616,21.651,20.856
			c9.544,5.242,21.387,7.867,35.528,7.867c17.79,0,32.787-3.566,44.983-10.694c9.129-5.336,17.052-12.771,23.772-22.301v27.692
			h32.699V177.158c0-8.011-0.353-15.493-1.06-22.446C1154.359,147.759,1152.473,141.161,1149.409,134.914z M1115.474,231.951
			c-1.414,6.247-4.419,12.257-9.015,18.029c-4.595,5.774-10.665,10.517-18.205,14.229c-7.542,3.71-16.557,5.567-27.042,5.567
			c-7.897,0-14.378-1.238-19.443-3.712c-5.068-2.474-8.838-5.803-11.312-9.986c-2.476-4.182-3.712-8.75-3.712-13.698
			c0-5.066,1.148-9.369,3.447-12.903c2.298-3.536,5.418-6.539,9.367-9.015c3.948-2.474,8.454-4.595,13.522-6.362
			c6.01-1.884,12.872-3.505,20.591-4.862c7.716-1.353,16.349-2.74,25.894-4.153c6.118-0.906,12.72-1.894,19.709-2.945
			c-0.072,3.127-0.187,6.664-0.355,10.722C1118.625,219.932,1117.475,226.294,1115.474,231.951z"/>
	</g>
	<g>
		<path fill="#FFFFFF" d="M1247.993,37.5h-37.116v66.307h-36.588V133.5h36.588v86.078c0,10.369,0.146,19.65,0.442,27.837
			c0.292,8.192,2.502,16.235,6.627,24.127c4.596,8.838,11.428,15.319,20.503,19.442c9.073,4.124,19.383,6.364,30.932,6.717
			c11.547,0.353,23.332-0.649,35.351-3.005v-31.285c-12.491,1.767-23.362,2.152-32.611,1.15
			c-9.251-1.001-15.996-5.154-20.237-12.462c-2.24-3.888-3.446-8.66-3.624-14.317c-0.176-5.655-0.265-12.311-0.265-19.972V133.5
			h56.738v-29.694h-56.738V37.5z"/>
	</g>
	<g>
		<path fill="#FFFFFF" d="M1481.954,134.914c-5.892-12.606-15.173-21.829-27.837-27.661c-12.669-5.833-27.546-8.748-44.63-8.748
			c-22.036,0-39.68,4.832-52.936,14.493c-13.256,9.664-22.243,22.685-26.954,39.062l34.466,10.605
			c3.297-10.721,9.13-18.41,17.498-23.066c8.365-4.653,17.556-6.981,27.573-6.981c15.908,0,27.13,3.622,33.671,10.87
			c5.707,6.324,8.83,15.59,9.377,27.79c-7.237,1.018-14.446,2.036-21.751,3.052c-11.841,1.651-23.126,3.42-33.847,5.303
			c-10.724,1.885-20.327,4.065-28.809,6.539c-9.783,3.181-18.029,7.334-24.746,12.46s-11.784,11.343-15.201,18.648
			c-3.418,7.308-5.126,15.792-5.126,25.453c0,10.369,2.444,19.884,7.336,28.544c4.889,8.662,12.107,15.616,21.651,20.856
			c9.545,5.242,21.387,7.867,35.528,7.867c17.79,0,32.787-3.566,44.983-10.694c9.129-5.336,17.052-12.771,23.772-22.301v27.692
			h32.699V177.158c0-8.011-0.353-15.493-1.06-22.446C1486.904,147.759,1485.017,141.161,1481.954,134.914z M1448.019,231.951
			c-1.414,6.247-4.419,12.257-9.015,18.029c-4.595,5.774-10.665,10.517-18.205,14.229c-7.542,3.71-16.557,5.567-27.042,5.567
			c-7.897,0-14.378-1.238-19.443-3.712c-5.068-2.474-8.838-5.803-11.312-9.986c-2.476-4.182-3.712-8.75-3.712-13.698
			c0-5.066,1.148-9.369,3.447-12.903c2.298-3.536,5.418-6.539,9.367-9.015c3.948-2.474,8.454-4.595,13.522-6.362
			c6.01-1.884,12.872-3.505,20.591-4.862c7.716-1.353,16.349-2.74,25.894-4.153c6.118-0.906,12.72-1.894,19.709-2.945
			c-0.072,3.127-0.187,6.664-0.355,10.722C1451.17,219.932,1450.02,226.294,1448.019,231.951z"/>
	</g>
	<g>
		<g>
			<path fill="#FFFFFF" d="M223.726,134.061h-0.001c-9.188-5.349-19.225-9.539-29.9-12.484
				c13.628-14.45,41.323-49.696,28.629-86.355c-7.855-22.652-28.753-36.448-53.227-35.136
				c-31.291,1.642-70.875,29.797-88.142,103.932c-2.088,9.549-3.785,18.926-5.053,27.907c-27.803,10.97-53.287,26.807-73.794,45.87
				L0,179.876l24.509,26.352l2.237-2.082c14.023-13.048,29.595-23.905,46.348-32.32c0.104,66.919,29.311,113.675,78.73,125.516
				c7.378,1.763,14.936,2.658,22.465,2.658c42.776-0.007,79.94-27.988,90.393-68.109
				C274.475,190.581,259.547,154.923,223.726,134.061z M116.187,111.922c12.714-54.568,37.531-74.993,54.967-75.907
				c8.38-0.555,14.755,3.64,17.302,10.996c4.799,13.843-18.104,73.411-74.027,73.411L116.187,111.922z M205.623,165.154
				c15.189,8.847,31.7,26.106,24.13,58.084c-7.43,28.452-39.273,46.365-69.55,39.11c-35.361-8.469-54.246-47.411-50.734-104.36
				C145.621,148.433,181.432,151.071,205.623,165.154z"/>
		</g>
	</g>
	<g>
		<path fill="#FFFFFF" d="M1531.102,92.808V56.374h15.049c0.353,0,0.811,0.015,1.366,0.038c0.555,0.03,1.073,0.083,1.546,0.165
			c2.109,0.323,3.85,1.021,5.224,2.102c1.374,1.081,2.394,2.439,3.062,4.083c0.661,1.644,0.998,3.475,0.998,5.479
			c0,2.972-0.75,5.517-2.252,7.656c-1.501,2.132-3.805,3.453-6.905,3.956l-2.604,0.225h-9.39v12.73H1531.102z M1537.197,74.388
			h8.707c0.338,0,0.713-0.015,1.133-0.053c0.42-0.03,0.811-0.098,1.163-0.203c1.013-0.248,1.809-0.698,2.394-1.336
			c0.578-0.646,0.991-1.366,1.239-2.177c0.248-0.811,0.368-1.606,0.368-2.379c0-0.773-0.12-1.569-0.368-2.387
			s-0.661-1.554-1.239-2.192c-0.585-0.638-1.381-1.088-2.394-1.344c-0.353-0.098-0.743-0.165-1.163-0.188s-0.796-0.038-1.133-0.038
			h-8.707V74.388z M1552.021,92.808l-7.183-14.824l6.2-1.366l7.889,16.19H1552.021z"/>
	</g>
	<g>
		<g>
			<path fill="#FFFFFF" d="M1542.763,45.186c16.539,0,29.995,13.456,29.995,29.995s-13.456,29.994-29.995,29.994
				s-29.994-13.455-29.994-29.994S1526.223,45.186,1542.763,45.186 M1542.763,37.5c-20.81,0-37.68,16.87-37.68,37.681
				c0,20.81,16.87,37.68,37.68,37.68c20.811,0,37.681-16.87,37.681-37.68C1580.443,54.37,1563.573,37.5,1542.763,37.5L1542.763,37.5
				z"/>
		</g>
	</g>
</g>
<g>
</g>
<g>
</g>
<g>
</g>
<g>
</g>
<g>
</g>
<g>
</g>
<g>
</g>
<g>
</g>
<g>
</g>
<g>
</g>
<g>
</g>
<g>
</g>
<g>
</g>
<g>
</g>
<g>
</g>
</svg>
